<?xml version="1.0" encoding="UTF-8" standalone="no"?>
<!-- Created with Inkscape (http://www.inkscape.org/) -->

<svg
   width="318"
   height="96"
   viewBox="0 0 84.1375 25.399999"
   version="1.1"
   id="svg1"
   inkscape:version="1.3 (0e150ed6c4, 2023-07-21)"
   sodipodi:docname="nyamacs-logo.svg"
   xmlns:inkscape="http://www.inkscape.org/namespaces/inkscape"
   xmlns:sodipodi="http://sodipodi.sourceforge.net/DTD/sodipodi-0.dtd"
   xmlns="http://www.w3.org/2000/svg"
   xmlns:svg="http://www.w3.org/2000/svg">
  <sodipodi:namedview
     id="namedview1"
     pagecolor="#505050"
     bordercolor="#eeeeee"
     borderopacity="1"
     inkscape:showpageshadow="0"
     inkscape:pageopacity="0"
     inkscape:pagecheckerboard="0"
     inkscape:deskcolor="#505050"
     inkscape:document-units="mm"
     inkscape:zoom="2.0899583"
     inkscape:cx="109.81081"
     inkscape:cy="26.555554"
     inkscape:window-width="1920"
     inkscape:window-height="1048"
     inkscape:window-x="0"
     inkscape:window-y="32"
     inkscape:window-maximized="1"
     inkscape:current-layer="layer1" />
  <defs
     id="defs1">
    <rect
       x="8.7689778"
       y="6.5689742"
       width="298.9168"
       height="77.64595"
       id="rect3" />
    <rect
       x="15.644879"
       y="24.732056"
       width="352.515"
       height="51.085168"
       id="rect2" />
    <rect
       x="13.651939"
       y="12.863971"
       width="275.90422"
       height="71.55652"
       id="rect1" />
  </defs>
  <g
     inkscape:label="Layer 1"
     inkscape:groupmode="layer"
     id="layer1">
    <path
       style="font-size:48px;font-family:Comfortaa;-inkscape-font-specification:Comfortaa;white-space:pre;fill:#f38ba8;stroke-width:0.361517;fill-opacity:1"
       d="m 78.639838,17.498057 q -1.023817,0 -2.030281,-0.347057 -1.006464,-0.347056 -1.631166,-1.04117 -0.190881,-0.208233 -0.156175,-0.468526 0.03471,-0.260292 0.260292,-0.451173 0.24294,-0.173529 0.503232,-0.138823 0.260293,0.03471 0.433821,0.225587 0.416468,0.485879 1.093228,0.746171 0.694113,0.260293 1.527049,0.260293 1.284109,0 1.856752,-0.433821 0.572644,-0.451173 0.589996,-1.075875 0,-0.624702 -0.589996,-1.023817 -0.589996,-0.416468 -1.943516,-0.642055 -1.752636,-0.277645 -2.568219,-0.971758 -0.815582,-0.694113 -0.815582,-1.648518 0,-0.8849941 0.468526,-1.4749902 0.468526,-0.5899961 1.249403,-0.8849941 0.780878,-0.2949981 1.71793,-0.2949981 1.16264,0 1.995575,0.399115 0.850289,0.399115 1.370874,1.0758753 0.173528,0.2255867 0.138822,0.4685263 -0.03471,0.2429398 -0.277645,0.3991148 -0.208234,0.12147 -0.485879,0.08676 -0.260293,-0.05206 -0.451174,-0.260292 Q 80.461885,9.4984 79.889241,9.2728132 79.316598,9.0298736 78.570427,9.0298736 q -0.954406,0 -1.527049,0.3991151 -0.572643,0.3817621 -0.572643,0.9717583 0,0.399115 0.208233,0.694113 0.225587,0.294998 0.746172,0.520584 0.537938,0.225587 1.492343,0.381763 1.301462,0.208234 2.047634,0.624701 0.763524,0.399115 1.075875,0.954406 0.329704,0.537937 0.329704,1.179992 0,0.815583 -0.48588,1.440285 -0.468526,0.607349 -1.318814,0.954405 -0.832936,0.347057 -1.926164,0.347057 z"
       id="path20" />
    <path
       style="font-size:48px;font-family:Comfortaa;-inkscape-font-specification:Comfortaa;white-space:pre;fill:#cba6f7;stroke-width:0.361517;fill-opacity:1"
       d="m 69.234617,17.498057 q -1.370874,0 -2.446749,-0.624702 -1.058522,-0.642055 -1.683224,-1.735283 -0.607349,-1.093228 -0.607349,-2.464101 0,-1.388226 0.589996,-2.481454 0.589996,-1.0932281 1.613813,-1.7179298 1.023817,-0.6420546 2.359985,-0.6420546 1.058522,0 1.943516,0.4164678 0.902347,0.4164679 1.579107,1.2494036 0.190881,0.2082339 0.138823,0.4511735 -0.05206,0.2255865 -0.294998,0.3991145 -0.190881,0.138823 -0.433821,0.104117 -0.225587,-0.05206 -0.399115,-0.260292 -1.006464,-1.1452865 -2.533512,-1.1452865 -0.971759,0 -1.71793,0.4685263 -0.728819,0.4685263 -1.145287,1.2841092 -0.399115,0.815582 -0.399115,1.874105 0,1.041169 0.433821,1.856752 0.43382,0.815583 1.214698,1.284109 0.780877,0.468527 1.787341,0.468527 0.67676,0 1.23205,-0.173529 0.572644,-0.190881 1.006464,-0.572643 0.208234,-0.173528 0.433821,-0.190881 0.225587,-0.01735 0.416468,0.138823 0.208234,0.190881 0.225587,0.43382 0.03471,0.24294 -0.156176,0.416468 -1.266756,1.16264 -3.158214,1.16264 z"
       id="path19" />
    <path
       style="font-size:48px;font-family:Comfortaa;-inkscape-font-specification:Comfortaa;white-space:pre;fill:#89b4fa;stroke-width:0.361517;fill-opacity:1"
       d="m 57.434695,17.498057 q -1.336168,0 -2.39469,-0.624702 -1.058523,-0.642055 -1.683225,-1.735283 -0.607348,-1.093228 -0.607348,-2.464101 0,-1.388226 0.624701,-2.481454 0.642055,-1.0932281 1.735283,-1.7179298 1.093228,-0.6420546 2.464101,-0.6420546 1.370874,0 2.446749,0.6420546 1.093228,0.6247017 1.71793,1.7179298 0.642054,1.093228 0.659407,2.481454 l -0.537938,0.416468 q 0,1.249403 -0.589996,2.255867 -0.572643,0.989111 -1.579107,1.579107 -0.989111,0.572644 -2.255867,0.572644 z m 0.138822,-1.214698 q 1.006464,0 1.787341,-0.468527 0.79823,-0.468526 1.249404,-1.284109 0.468526,-0.832935 0.468526,-1.856752 0,-1.04117 -0.468526,-1.856753 -0.451174,-0.815582 -1.249404,-1.2841084 -0.780877,-0.4858791 -1.787341,-0.4858791 -0.989111,0 -1.787341,0.4858791 -0.79823,0.4685264 -1.266756,1.2841084 -0.468526,0.815583 -0.468526,1.856753 0,1.023817 0.468526,1.856752 0.468526,0.815583 1.266756,1.284109 0.79823,0.468527 1.787341,0.468527 z m 4.147326,1.127933 q -0.294998,0 -0.485879,-0.173528 -0.190881,-0.190881 -0.190881,-0.485879 v -2.967333 l 0.329703,-1.370874 1.023817,0.260293 v 4.077914 q 0,0.294998 -0.190881,0.485879 -0.190881,0.173528 -0.485879,0.173528 z"
       id="path18" />
    <path
       style="font-size:48px;font-family:Comfortaa;-inkscape-font-specification:Comfortaa;white-space:pre;fill:#a6e3a1;stroke-width:0.361517;fill-opacity:1"
       d="m 49.643265,17.411292 q -0.294998,0 -0.48588,-0.173528 -0.190881,-0.190881 -0.190881,-0.485879 v -4.997614 q 0,-1.23205 -0.642054,-1.9435162 -0.642055,-0.7288187 -1.648519,-0.7288187 -1.075875,0 -1.769988,0.7288187 -0.67676,0.7114662 -0.659407,1.9088102 h -1.197345 q 0.01735,-1.162639 0.503231,-2.0476328 0.48588,-0.8849941 1.336168,-1.3708733 0.850289,-0.4858791 1.926164,-0.4858791 1.023817,0 1.804694,0.4858791 0.79823,0.4858792 1.232051,1.3708733 0.451173,0.8849938 0.451173,2.0823388 v 4.997614 q 0,0.294998 -0.190881,0.485879 -0.173528,0.173528 -0.468526,0.173528 z m -6.056137,0 q -0.294998,0 -0.485879,-0.173528 -0.190881,-0.190881 -0.190881,-0.485879 v -4.997614 q 0,-1.23205 -0.642055,-1.9435162 -0.642053,-0.7288187 -1.648517,-0.7288187 -1.075875,0 -1.769988,0.7114659 -0.694113,0.694113 -0.694113,1.822046 h -0.954406 q 0.03471,-1.11058 0.485879,-1.9608686 0.468527,-0.8676413 1.266757,-1.3535205 0.79823,-0.4858791 1.804694,-0.4858791 1.023817,0 1.804692,0.4858791 0.79823,0.4858792 1.232051,1.3708733 0.451174,0.8849938 0.451174,2.0823388 v 4.997614 q 0,0.294998 -0.190882,0.485879 -0.173528,0.173528 -0.468526,0.173528 z m -6.090841,0 q -0.312351,0 -0.503232,-0.173528 -0.173528,-0.190881 -0.173528,-0.485879 V 8.596057 q 0,-0.2949981 0.173528,-0.4858792 0.190881,-0.1908811 0.503232,-0.1908811 0.294998,0 0.468527,0.1908811 0.190881,0.1908811 0.190881,0.4858792 v 8.155828 q 0,0.294998 -0.190881,0.485879 -0.173529,0.173528 -0.468527,0.173528 z"
       id="path17" />
    <path
       style="font-size:48px;font-family:Comfortaa;-inkscape-font-specification:Comfortaa;white-space:pre;fill:#f9e2af;stroke-width:0.361517;fill-opacity:1"
       d="m 29.253695,17.498057 q -1.336168,0 -2.39469,-0.624702 -1.058523,-0.642055 -1.683225,-1.735283 -0.607348,-1.093228 -0.607348,-2.464101 0,-1.388226 0.624701,-2.481454 0.642055,-1.0932281 1.735283,-1.7179298 1.093228,-0.6420546 2.464101,-0.6420546 1.370874,0 2.446749,0.6420546 1.093228,0.6247017 1.71793,1.7179298 0.642054,1.093228 0.659407,2.481454 l -0.537937,0.416468 q 0,1.249403 -0.589997,2.255867 -0.572643,0.989111 -1.579107,1.579107 -0.989111,0.572644 -2.255867,0.572644 z m 0.138822,-1.214698 q 1.006464,0 1.787341,-0.468527 0.798231,-0.468526 1.249404,-1.284109 0.468526,-0.832935 0.468526,-1.856752 0,-1.04117 -0.468526,-1.856753 -0.451173,-0.815582 -1.249404,-1.2841084 -0.780877,-0.4858791 -1.787341,-0.4858791 -0.989111,0 -1.787341,0.4858791 -0.79823,0.4685264 -1.266756,1.2841084 -0.468526,0.815583 -0.468526,1.856753 0,1.023817 0.468526,1.856752 0.468526,0.815583 1.266756,1.284109 0.79823,0.468527 1.787341,0.468527 z m 4.147326,1.127933 q -0.294998,0 -0.485879,-0.173528 -0.190881,-0.190881 -0.190881,-0.485879 v -2.967333 l 0.329703,-1.370874 1.023817,0.260293 v 4.077914 q 0,0.294998 -0.190881,0.485879 -0.190881,0.173528 -0.485879,0.173528 z"
       id="path16" />
    <path
       style="font-size:48px;font-family:Comfortaa;-inkscape-font-specification:Comfortaa;white-space:pre;fill:#fab387;stroke-width:0.361517;fill-opacity:1"
       d="m 17.540539,21.541265 q -0.138822,0 -0.31235,-0.06941 -0.589996,-0.260292 -0.329704,-0.832936 L 22.503448,8.2837061 Q 22.76374,7.7284156 23.336384,7.9713552 23.92638,8.2142948 23.666087,8.7869381 L 18.043771,21.14215 q -0.173528,0.399115 -0.503232,0.399115 z m 1.926164,-4.424971 q -0.260292,0.12147 -0.485879,0.05206 -0.225587,-0.08676 -0.364409,-0.347057 L 14.746734,8.8042909 q -0.121469,-0.2602924 -0.03471,-0.4858791 0.08676,-0.2255868 0.347056,-0.3470566 0.260293,-0.1214698 0.485879,-0.034706 0.225587,0.069411 0.347057,0.3297037 l 3.800269,8.0170061 q 0.138823,0.260292 0.08676,0.485879 -0.05206,0.225587 -0.312351,0.347056 z"
       id="path15" />
    <path
       style="font-size:48px;font-family:Comfortaa;-inkscape-font-specification:Comfortaa;white-space:pre;fill:#f38ba8;stroke-width:0.361517;fill-opacity:1"
       d="m 2.443567,17.411292 q -0.2949981,0 -0.4858792,-0.190881 Q 1.7668067,17.02953 1.7668067,16.734532 V 4.5354956 q 0,-0.2949981 0.1908811,-0.4858792 0.1908811,-0.1908811 0.4858792,-0.1908811 0.3123508,0 0.5205848,0.2429396 L 11.258803,14.99925 V 4.5354956 q 0,-0.2949981 0.190881,-0.4858792 0.190881,-0.1908811 0.485879,-0.1908811 0.277645,0 0.468526,0.1908811 0.208234,0.1908811 0.208234,0.4858792 V 16.734532 q 0,0.294998 -0.208234,0.485879 -0.190881,0.190881 -0.468526,0.190881 -0.138823,0 -0.277645,-0.05206 -0.138823,-0.05206 -0.225587,-0.173528 L 3.1203272,6.288131 v 10.446401 q 0,0.294998 -0.2082339,0.485879 -0.1908811,0.190881 -0.4685263,0.190881 z"
       id="text2" />
  </g>
</svg>
